<svg width="32" height="32" viewBox="0 0 32 32" fill="none" xmlns="http://www.w3.org/2000/svg">
  <rect width="32" height="32" rx="6" fill="#0ea5e9"/>
  <path d="M8 9.5C8 8.67157 8.67157 8 9.5 8H14.5C17.5376 8 20 10.4624 20 13.5C20 15.5 19 17 17.5 17.5C19.5 18 21 19.5 21 22C21 25.3137 18.3137 28 15 28H9.5C8.67157 28 8 27.3284 8 26.5V9.5Z" fill="white"/>
  <path d="M12 12V15H14.5C15.3284 15 16 14.3284 16 13.5C16 12.6716 15.3284 12 14.5 12H12Z" fill="#0ea5e9"/>
  <path d="M12 18V24H15C16.6569 24 18 22.6569 18 21C18 19.3431 16.6569 18 15 18H12Z" fill="#0ea5e9"/>
</svg>